<?xml version="1.0" encoding="utf-8"?>
<svg version="1.1" id="_x31_" xmlns="http://www.w3.org/2000/svg" xmlns:xlink="http://www.w3.org/1999/xlink" x="0px" y="0px"
	 width="1200px" height="600px" viewBox="0 0 1200 600" enable-background="new 0 0 1200 600" xml:space="preserve">
<g>
	<path fill="#E55A21" d="M135.063,551.864l-92.158-92.158c-8.629-8.629-8.629-22.62,0-31.249L421.848,49.514
		c8.629-8.629,22.62-8.629,31.249,0l92.158,92.158c8.629,8.629,8.629,22.62,0,31.249L166.312,551.864
		C157.683,560.494,143.692,560.494,135.063,551.864z"/>
	<path fill="#E55A21" d="M1157.918,425.746L853.646,121.474l-0.447,0.447l-73.786-73.786c-8.629-8.629-22.62-8.629-31.249,0
		L373.245,423.055c-8.629,8.629-8.629,22.62,0,31.249l92.158,92.158c8.629,8.629,22.62,8.629,31.249,0l102.594-102.594
		l105.509,105.509c8.149,8.149,21.361,8.149,29.51,0l96.132-96.132c8.149-8.149,8.149-21.361,0-29.51L724.889,318.225L762,281.113
		l270.275,270.275c7.532,7.532,19.743,7.532,27.275,0l98.368-98.368C1165.45,445.489,1165.45,433.278,1157.918,425.746z"/>
</g>
</svg>
